<svg xmlns="http://www.w3.org/2000/svg" viewBox="0 0 1000 324.68">
  <path fill="#00579F" d="M651.17,0.2H348.83c-166.6,0-301.63,135.03-301.63,301.63v21.63c0,166.6,135.03,301.63,301.63,301.63h302.33c166.6,0,301.63-135.03,301.63-301.63v-21.63C952.8,135.23,817.77,0.2,651.17,0.2z"/>
  <path fill="#FAA61A" d="M116.5,170.77h767c0-94.1-76.4-170.5-170.5-170.5h-426C193.1,0.27,116.5,76.67,116.5,170.77z"/>
  <path fill="#FFFFFF" d="M413.45,145.5l-52.98,123.8h-34.48l-26.4-102.35c-1.6-6.3-3-8.6-7.9-11.25c-7.98-4.25-21.16-8.2-32.8-10.65l0.78-3.55h56.48c7.2,0,13.65,4.8,15.3,13.1l13.95,74.1l34.45-87.2H413.45z M533.5,223.4c0.05-34.15-47.25-36-46.95-51.25c0.1-4.65,4.55-9.6,14.25-10.85c4.8-0.65,18.05-1.15,33.1,5.95l5.9-27.55c-8.1-2.95-18.5-5.75-31.45-5.75c-33.25,0-56.7,17.7-56.9,43c-0.25,18.75,16.7,29.2,29.45,35.45c13.1,6.35,17.5,10.45,17.45,16.15c-0.1,8.7-10.45,12.55-20.1,12.7c-16.9,0.25-26.7-4.6-34.5-8.25l-6.1,28.5c7.85,3.6,22.3,6.75,37.3,6.9C505.9,268.4,533.45,251,533.5,223.4 M618.65,269.3h30.25l-26.4-123.8h-27.95c-6.3,0-11.6,3.65-13.95,9.3l-49.2,114.5h34.35l6.85-18.95h41.95L618.65,269.3z M574.45,224.3l17.3-47.6l9.95,47.6H574.45z M466.8,145.5l-27.1,123.8h-32.7l27.1-123.8H466.8z"/>
</svg> 